<svg xmlns="http://www.w3.org/2000/svg" xmlns:xlink="http://www.w3.org/1999/xlink" width="18" height="18" viewBox="0 0 18 18">
  <defs>
    <clipPath id="clip-path">
      <rect id="Rectangle_3471" data-name="Rectangle 3471" width="18" height="18" fill="#fff"/>
    </clipPath>
    <clipPath id="clip-path-2">
      <rect id="Rectangle_3473" data-name="Rectangle 3473" width="10.533" height="13.553" fill="#999"/>
    </clipPath>
  </defs>
  <g id="heart-3-line_1" data-name="heart-3-line 1" clip-path="url(#clip-path)">
    <g id="Group_14190" data-name="Group 14190" transform="translate(4 2)">
      <g id="Group_14190-2" data-name="Group 14190" clip-path="url(#clip-path-2)">
        <path id="Path_8883" data-name="Path 8883" d="M10.532,2.806A2.76,2.76,0,0,0,9.475.524,2.4,2.4,0,0,0,7.951,0C6.164,0,4.377,0,2.591.005A2.6,2.6,0,0,0,.021,2.414,3.467,3.467,0,0,0,0,2.85q0,4.882,0,9.763a1.065,1.065,0,0,0,.181.659.922.922,0,0,0,.453.281H.982q2.1-.941,4.21-1.878a.221.221,0,0,1,.161.008q1.965.871,3.927,1.749c.094.042.188.081.282.121h.274l.152-.052a.751.751,0,0,0,.542-.733c0-.04,0-.08,0-.119q0-4.921,0-9.843M9.193,11.851c-.054-.022-.095-.038-.135-.056q-1.846-.833-3.691-1.668a.229.229,0,0,0-.209,0q-1.834.829-3.671,1.651c-.044.02-.09.037-.152.063v-.158q0-4.451,0-8.9A1.351,1.351,0,0,1,2.683,1.342H7.855A1.341,1.341,0,0,1,9.193,2.76q0,4.477,0,8.953Z" transform="translate(0 0)" fill="#999"/>
      </g>
    </g>
  </g>
</svg>
