<svg id="Group_14155" data-name="Group 14155" xmlns="http://www.w3.org/2000/svg" xmlns:xlink="http://www.w3.org/1999/xlink" width="33.538" height="33.543" viewBox="0 0 33.538 33.543">
  <defs>
    <clipPath id="clip-path">
      <rect id="Rectangle_3466" data-name="Rectangle 3466" width="33.538" height="33.543" fill="#0969c3"/>
    </clipPath>
  </defs>
  <g id="Group_14154" data-name="Group 14154" clip-path="url(#clip-path)">
    <path id="Path_8864" data-name="Path 8864" d="M24.784,17.207c2.486-2.481,4.963-4.971,7.457-7.444a4.034,4.034,0,0,0,1.3-2.025V6.952a3.878,3.878,0,0,0-1.283-2.036C30.913,3.6,29.6,2.266,28.268.939a2.712,2.712,0,0,0-4.108,0q-3.89,3.887-7.777,7.779c-.093.092-.174.2-.283.319-.114-.106-.2-.182-.282-.263-1.667-1.666-3.351-3.316-4.994-5.006A8.3,8.3,0,0,0,6.686,1.408C4.894.986,3.115.512,1.328.068A.979.979,0,0,0,.069,1.328q.723,2.9,1.463,5.8A7.436,7.436,0,0,0,3.547,10.59q2.612,2.6,5.209,5.208c.084.084.164.171.261.273-.083.09-.153.17-.227.245q-3.9,3.9-7.8,7.8a2.727,2.727,0,0,0,0,4.2c1.319,1.319,2.649,2.629,3.953,3.964a3.834,3.834,0,0,0,2.011,1.26h.786a4.028,4.028,0,0,0,2.025-1.3c2.464-2.487,4.947-4.956,7.421-7.435a4.968,4.968,0,0,0,.318-.41,3.046,3.046,0,0,0,.274.41c2.341,2.348,4.695,4.683,7.027,7.041A5.26,5.26,0,0,0,27.949,33.5a.306.306,0,0,1,.087.041h1.048c.253-.058.509-.1.758-.176a4.89,4.89,0,0,0,3.635-4.061c.013-.073.04-.144.06-.217V28.042c-.054-.244-.1-.489-.164-.73a5.063,5.063,0,0,0-1.367-2.343q-3.6-3.594-7.2-7.193a2.035,2.035,0,0,0-.327-.22c0-.051,0-.1,0-.152a1.707,1.707,0,0,0,.3-.2M5.594,9.829A6.223,6.223,0,0,1,3.453,6.7q-.537-2.106-1.07-4.212a.737.737,0,0,1,0-.13l1.558.393c.76.192,1.513.415,2.28.57A6.275,6.275,0,0,1,9.826,5.6L5.594,9.829M7.08,11.238l4.15-4.145,3.358,3.369L10.443,14.6,7.08,11.238M30.965,26.783a2.942,2.942,0,0,1-.275,3.91,3,3,0,0,1-3.943.27,3.976,3.976,0,0,1-.392-.346c-.643-.635-1.282-1.274-1.9-1.892l4.277-4.279c.737.762,1.551,1.5,2.238,2.337m-3.748-3.741L23.055,27.2l-4.09-4.1,4.154-4.157,4.1,4.095m-2.82-8.72q-1.332-1.329-2.664-2.659a.986.986,0,0,0-1.478-.079,1.006,1.006,0,0,0,.106,1.479c.956.958,1.913,1.914,2.854,2.854l-1.519,1.519c-.471-.472-.961-.967-1.453-1.459a.962.962,0,0,0-1.077-.262.973.973,0,0,0-.329,1.632c.486.5.991.983,1.452,1.439L18.8,20.279c-.02-.019-.107-.1-.187-.177-.9-.9-1.8-1.809-2.71-2.708a1,1,0,0,0-1.2-.2.922.922,0,0,0-.474,1.051,1.461,1.461,0,0,0,.36.6c.869.891,1.754,1.764,2.633,2.645.076.075.148.156.2.211l-1.513,1.512c-.462-.464-.958-.964-1.456-1.463a.96.96,0,0,0-.952-.3.977.977,0,0,0-.464,1.652c.246.263.506.513.763.765s.5.485.725.7l-1.574,1.563a5.665,5.665,0,0,0-.373-.446q-1.222-1.233-2.453-2.455a.98.98,0,0,0-1.456-.068,1,1,0,0,0,.072,1.456q1.327,1.336,2.663,2.662a2.219,2.219,0,0,0,.254.2l-1.549,1.552L8.657,27.575A.982.982,0,1,0,7.219,28.91c.418.445.861.867,1.292,1.3.075.076.146.157.239.255-.326.325-.626.655-.961.946a.713.713,0,0,1-1.027-.1c-.507-.5-1.005-1-1.506-1.5q-1.471-1.471-2.94-2.941a.778.778,0,0,1,0-1.292Q13.932,13.95,25.554,2.327a.785.785,0,0,1,1.315,0q2.19,2.186,4.376,4.376a.776.776,0,0,1,0,1.271c-.25.257-.5.52-.763.8-.117-.109-.206-.185-.287-.267-.88-.88-1.754-1.765-2.644-2.635a1.433,1.433,0,0,0-.573-.35.927.927,0,0,0-1.064.45.979.979,0,0,0,.172,1.2c.8.816,1.617,1.624,2.429,2.433.176.175.364.338.529.489L27.507,11.63c-.48-.481-.981-1-1.495-1.5a.963.963,0,0,0-1.2-.157.945.945,0,0,0-.432,1.1,1.421,1.421,0,0,0,.327.513c.467.488.953.958,1.474,1.476-.264.255-.514.492-.759.734s-.491.5-.763.77c-.094-.089-.179-.167-.261-.248" transform="translate(0 0)" fill="#0969c3"/>
  </g>
</svg>
