<svg xmlns="http://www.w3.org/2000/svg" width="50" height="26.851" viewBox="0 0 50 26.851">
  <path id="insights_FILL0_wght300_GRAD0_opsz48" d="M6.163,45.3a3.52,3.52,0,0,1-2.587-1.08A3.482,3.482,0,0,1,2.5,41.681,3.63,3.63,0,0,1,6.1,38a4.221,4.221,0,0,1,.7.058,4.45,4.45,0,0,1,.814.233l11.86-11.908a4.5,4.5,0,0,1-.233-.817,4.271,4.271,0,0,1-.058-.7A3.453,3.453,0,0,1,20.262,22.3a3.711,3.711,0,0,1,5.174,0,3.521,3.521,0,0,1,1.076,2.627q0,.175-.233,1.4l6.744,6.829a3.12,3.12,0,0,1,.785-.2q.32-.029.669-.029a3.718,3.718,0,0,1,.669.058,4.715,4.715,0,0,1,.785.233l9.593-9.631a4.762,4.762,0,0,1-.233-.788,3.762,3.762,0,0,1-.058-.671,3.548,3.548,0,0,1,1.076-2.6,3.454,3.454,0,0,1,2.529-1.08,3.493,3.493,0,0,1,2.616,1.08,3.747,3.747,0,0,1,0,5.2A3.426,3.426,0,0,1,48.9,25.8a4.22,4.22,0,0,1-.7-.058,3.316,3.316,0,0,1-.756-.233l-9.593,9.631a3.349,3.349,0,0,1,.233.759,4.27,4.27,0,0,1,.058.7,3.482,3.482,0,0,1-1.076,2.539,3.639,3.639,0,0,1-5.174,0A3.482,3.482,0,0,1,30.814,36.6a4.27,4.27,0,0,1,.058-.7,4.5,4.5,0,0,1,.233-.817l-6.8-6.829a3.316,3.316,0,0,1-.756.233,4.221,4.221,0,0,1-.7.058,12.962,12.962,0,0,1-1.453-.233L9.535,40.222a3.153,3.153,0,0,1,.2.788q.029.321.029.671a3.581,3.581,0,0,1-3.6,3.619Z" transform="translate(-2.5 -18.449)" fill="#0969c3"/>
</svg>
