<svg id="Group_14184" data-name="Group 14184" xmlns="http://www.w3.org/2000/svg" width="16" height="16" viewBox="0 0 16 16">
  <path id="Path_8879" data-name="Path 8879" d="M0,0H16V16H0Z" fill="none"/>
  <path id="Path_8880" data-name="Path 8880" d="M8.523,13.6l3.038-3.038a4.3,4.3,0,1,0-6.075,0Zm0,1.735L4.618,11.428a5.523,5.523,0,1,1,7.811,0Zm0-6.583A1.227,1.227,0,1,0,7.3,7.523,1.227,1.227,0,0,0,8.523,8.75Zm0,1.227a2.455,2.455,0,1,1,2.455-2.455A2.455,2.455,0,0,1,8.523,9.978Z" transform="translate(-1 -1)" fill="#666"/>
</svg>
