<svg xmlns="http://www.w3.org/2000/svg" width="14.549" height="18.2" viewBox="0 0 14.549 18.2">
  <g id="Iconly-Light-Outline-Profile" transform="translate(0.1 0.1)">
    <g id="Profile" transform="translate(0.001 0)">
      <path id="Union_22" data-name="Union 22" d="M0,14.651c0-2.986,4.1-3.331,7.176-3.331,1.775,0,7.173,0,7.173,3.349,0,2.986-4.094,3.331-7.173,3.331C5.4,18,0,18,0,14.651Zm1.359,0c0,1.321,1.957,1.99,5.817,1.99s5.815-.662,5.815-1.972-1.956-1.99-5.815-1.99S1.358,13.343,1.358,14.651ZM7.146,9.619a4.823,4.823,0,1,1,.029,0ZM3.657,4.811A3.509,3.509,0,0,0,7.149,8.327l.026.647V8.327A3.517,3.517,0,1,0,3.657,4.811Z" transform="translate(0 0)" stroke="#000" stroke-width="0.2"/>
    </g>
  </g>
</svg>
