<svg id="Group_14159" data-name="Group 14159" xmlns="http://www.w3.org/2000/svg" xmlns:xlink="http://www.w3.org/1999/xlink" width="40.725" height="36.305" viewBox="0 0 40.725 36.305">
  <defs>
    <clipPath id="clip-path">
      <rect id="Rectangle_3468" data-name="Rectangle 3468" width="40.725" height="36.305" fill="#0969c3"/>
    </clipPath>
  </defs>
  <g id="Group_14158" data-name="Group 14158" clip-path="url(#clip-path)">
    <path id="Path_8868" data-name="Path 8868" d="M40.722,3.3A3.19,3.19,0,0,0,37.417,0c-9.939,0-24.158,0-34.1,0A3.191,3.191,0,0,0,.06,2.612,1.414,1.414,0,0,1,0,2.777V33.527c.053.192.1.388.163.577a3.205,3.205,0,0,0,3.052,2.2c2.016.01,4.033,0,6.049,0H37.346a3.193,3.193,0,0,0,3.261-2.384,3.643,3.643,0,0,0,.113-.913q.009-14.855,0-29.709m-2.133,7.776q0,10.906,0,21.813a1.113,1.113,0,0,1-1.279,1.282H3.425c-.9,0-1.289-.4-1.289-1.307V10.691H38.589Zm0-2.542H2.152c-.006-.125-.016-.239-.016-.353q0-2.4,0-4.8a1.1,1.1,0,0,1,1.25-1.238H37.339a1.1,1.1,0,0,1,1.25,1.24q0,2.4,0,4.8Z" transform="translate(0 0)" fill="#0969c3"/>
    <path id="Path_8869" data-name="Path 8869" d="M177.738,147.446c-.467,1.115-.947,2.222-1.424,3.332q-2.441,5.7-4.879,11.393a1.174,1.174,0,0,1-1.011.844,1.072,1.072,0,0,1-1.03-1.508c.462-1.115.946-2.221,1.423-3.332q2.442-5.7,4.889-11.389a1.8,1.8,0,0,1,.409-.609,1.01,1.01,0,0,1,1.282-.033,1.058,1.058,0,0,1,.341,1.3" transform="translate(-153.203 -132.054)" fill="#0969c3"/>
    <path id="Path_8870" data-name="Path 8870" d="M86.775,189.473a1.062,1.062,0,0,1-1.739.623c-.805-.624-1.594-1.27-2.389-1.908-.944-.755-1.89-1.507-2.831-2.266a1.068,1.068,0,0,1-.01-1.8q2.578-2.071,5.163-4.132a1.074,1.074,0,1,1,1.331,1.671q-1.913,1.536-3.831,3.065c-.108.087-.216.175-.363.3,1.427,1.142,2.8,2.247,4.185,3.345a1.105,1.105,0,0,1,.485,1.109" transform="translate(-71.773 -162.594)" fill="#0969c3"/>
    <path id="Path_8871" data-name="Path 8871" d="M277.247,185.894q-2.59,2.084-5.193,4.153a1.071,1.071,0,1,1-1.323-1.674q1.927-1.546,3.858-3.088c.1-.081.2-.165.343-.285l-2.836-2.271c-.462-.371-.928-.738-1.387-1.112a1.07,1.07,0,1,1,1.339-1.66q2.6,2.071,5.192,4.152a1.069,1.069,0,0,1,.007,1.785" transform="translate(-244.542 -162.581)" fill="#0969c3"/>
    <path id="Path_8872" data-name="Path 8872" d="M47.8,45.991a1.067,1.067,0,1,1-1.062-1.062A1.079,1.079,0,0,1,47.8,45.991" transform="translate(-41.325 -40.656)" fill="#0969c3"/>
    <path id="Path_8873" data-name="Path 8873" d="M92.72,46a1.066,1.066,0,1,1-1.053-1.071A1.077,1.077,0,0,1,92.72,46" transform="translate(-81.973 -40.656)" fill="#0969c3"/>
    <path id="Path_8874" data-name="Path 8874" d="M137.631,46a1.067,1.067,0,1,1-1.056-1.069A1.078,1.078,0,0,1,137.631,46" transform="translate(-122.613 -40.656)" fill="#0969c3"/>
  </g>
</svg>
