<svg xmlns="http://www.w3.org/2000/svg" xmlns:xlink="http://www.w3.org/1999/xlink" width="37" height="37" viewBox="0 0 37 37">
  <defs>
    <clipPath id="clip-path">
      <rect id="Rectangle_3469" data-name="Rectangle 3469" width="37" height="37" transform="translate(0 -1.557)" fill="#0969c3"/>
    </clipPath>
  </defs>
  <g id="c4" transform="translate(-1.5 1)">
    <g id="Group_14161" data-name="Group 14161" transform="translate(1 0.057)">
      <g id="Group_14160" data-name="Group 14160" transform="translate(0.5 0.5)" clip-path="url(#clip-path)">
        <path id="Path_8875" data-name="Path 8875" d="M33.922,4.7q-1.617-1.561-3.178-3.179A4.56,4.56,0,0,0,28.382,0h-.9a4.476,4.476,0,0,0-2.323,1.457Q14.323,12.318,3.476,23.167a2.37,2.37,0,0,0-.565.959C2.176,26.609,1.477,29.1.76,31.592.516,32.44.254,33.283,0,34.128v.554a1.587,1.587,0,0,0,.761.761h.554a2.385,2.385,0,0,1,.278-.119q4.763-1.361,9.528-2.715a2.85,2.85,0,0,0,1.291-.75q10.765-10.786,21.55-21.55a4.539,4.539,0,0,0,1.481-2.349v-.9A4.58,4.58,0,0,0,33.922,4.7M2.552,32.894c.651-2.281,1.286-4.5,1.906-6.67L9.22,30.986,2.552,32.894m8.766-2.971-5.8-5.8L23.5,6.133l5.8,5.8ZM32.966,8.353c-.7.7-1.4,1.4-2.075,2.075L25.047,4.583c.732-.748,1.464-1.53,2.237-2.27a.99.99,0,0,1,1.427.127c.739.728,1.468,1.465,2.2,2.2.684.685,1.371,1.367,2.053,2.054a1.055,1.055,0,0,1,0,1.661" transform="translate(1.344 -0.656)" fill="#0969c3"/>
        <path id="Path_8876" data-name="Path 8876" d="M46.244,484.405H12.706v-2.052H46.244a1.026,1.026,0,0,1,0,2.052" transform="translate(-10.483 -449.618)" fill="#0969c3"/>
      </g>
    </g>
  </g>
</svg>
